            <svg xmlns="http://www.w3.org/2000/svg" xmlns:xlink="http://www.w3.org/1999/xlink" version="1.1" x="0px" y="0px" viewBox="0 0 100 100" enable-background="new 0 0 100 100" xml:space="preserve">
                <g>
                    <path fill="#de0e65" d="M50.292,21.87c-18.679,0-33.876,15.196-33.876,33.875S31.613,89.62,50.292,89.62   s33.876-15.196,33.876-33.875S68.971,21.87,50.292,21.87z M50.292,88.12c-17.853,0-32.376-14.523-32.376-32.375   S32.439,23.37,50.292,23.37s32.376,14.523,32.376,32.375S68.145,88.12,50.292,88.12z"></path>
                    <path fill="#de0e65" d="M54.846,17.331c0.762-0.976,1.22-2.198,1.22-3.528c0-3.171-2.58-5.75-5.751-5.75s-5.751,2.579-5.751,5.75   c0,1.328,0.456,2.549,1.216,3.522c-19.215,2.244-34.178,18.612-34.178,38.42c0,21.334,17.355,38.69,38.69,38.69   s38.69-17.356,38.69-38.69C88.982,35.952,74.041,19.593,54.846,17.331z M50.314,10.553c1.793,0,3.251,1.458,3.251,3.25   c0,1.793-1.458,3.251-3.251,3.251s-3.251-1.458-3.251-3.251C47.063,12.011,48.521,10.553,50.314,10.553z M50.292,91.936   c-19.956,0-36.19-16.235-36.19-36.19c0-19.956,16.234-36.191,36.19-36.191s36.19,16.235,36.19,36.191   C86.482,75.7,70.248,91.936,50.292,91.936z"></path>
                    <path fill="#de0e65" d="M50.292,32.791c0.414,0,0.75-0.336,0.75-0.75v-4.167c0-0.414-0.336-0.75-0.75-0.75s-0.75,0.336-0.75,0.75   v4.167C49.542,32.455,49.878,32.791,50.292,32.791z"></path>
                    <path fill="#de0e65" d="M78.162,54.995h-4.166c-0.414,0-0.75,0.336-0.75,0.75s0.336,0.75,0.75,0.75h4.166   c0.414,0,0.75-0.336,0.75-0.75S78.576,54.995,78.162,54.995z"></path>
                    <path fill="#de0e65" d="M50.292,78.698c-0.414,0-0.75,0.336-0.75,0.75v4.168c0,0.414,0.336,0.75,0.75,0.75s0.75-0.336,0.75-0.75   v-4.168C51.042,79.034,50.706,78.698,50.292,78.698z"></path>
                    <path fill="#de0e65" d="M24.311,55.428h-4.568c-0.414,0-0.75,0.336-0.75,0.75s0.336,0.75,0.75,0.75h4.568   c0.414,0,0.75-0.336,0.75-0.75S24.725,55.428,24.311,55.428z"></path>
                    <path fill="#de0e65" d="M69.469,35.508l-2.946,2.945c-0.293,0.293-0.293,0.768,0,1.061c0.146,0.146,0.339,0.22,0.53,0.22   s0.384-0.073,0.53-0.22l2.946-2.945c0.293-0.293,0.293-0.768,0-1.061S69.762,35.215,69.469,35.508z"></path>
                    <path fill="#de0e65" d="M67.583,71.976c-0.293-0.293-0.768-0.293-1.061,0s-0.293,0.768,0,1.061l2.946,2.946   c0.146,0.146,0.339,0.22,0.531,0.22c0.191,0,0.383-0.073,0.529-0.22c0.293-0.293,0.293-0.768,0-1.061L67.583,71.976z"></path>
                    <path fill="#de0e65" d="M33.002,71.976l-2.947,2.946c-0.293,0.293-0.293,0.768,0,1.061c0.146,0.146,0.338,0.22,0.529,0.22   c0.192,0,0.385-0.073,0.531-0.22l2.947-2.946c0.293-0.293,0.293-0.768,0-1.061S33.295,71.683,33.002,71.976z"></path>
                    <path fill="#de0e65" d="M31.115,35.508c-0.293-0.293-0.768-0.293-1.061,0s-0.293,0.768,0,1.061l2.947,2.946   c0.146,0.146,0.338,0.22,0.529,0.22c0.192,0,0.385-0.073,0.531-0.22c0.293-0.293,0.293-0.768,0-1.061L31.115,35.508z"></path>
                    <path fill="#de0e65" d="M54.277,52.647c-0.07-0.117-0.175-0.196-0.287-0.257c-0.076-0.082-0.148-0.164-0.229-0.24   c-0.061-0.105-0.139-0.202-0.25-0.271l-0.295-0.18c-0.142-0.102-0.293-0.185-0.445-0.271l-14.751-8.988   c-0.296-0.18-0.677-0.134-0.921,0.11s-0.289,0.625-0.109,0.921l8.979,14.74c0.089,0.157,0.175,0.314,0.28,0.46l0.178,0.293   c0.072,0.117,0.172,0.207,0.285,0.268c0.07,0.073,0.146,0.137,0.22,0.205c0.062,0.115,0.142,0.221,0.261,0.294l15.492,9.438   c0.121,0.073,0.256,0.109,0.391,0.109c0.193,0,0.386-0.075,0.53-0.22c0.245-0.245,0.29-0.625,0.11-0.921L54.277,52.647z    M47.506,57.85l-0.318-0.522c-0.237-0.472-0.383-0.997-0.383-1.56c0-1.936,1.574-3.51,3.51-3.51c0.571,0,1.104,0.15,1.58,0.394   l0.496,0.302c0.863,0.64,1.433,1.658,1.433,2.814c0,1.935-1.574,3.509-3.509,3.509C49.162,59.276,48.146,58.71,47.506,57.85z    M49.073,50.933c-1.761,0.453-3.14,1.832-3.594,3.592l-5.602-9.194L49.073,50.933z M51.521,60.612   c1.788-0.446,3.189-1.848,3.637-3.636l5.67,9.306L51.521,60.612z"></path>
                </g>
            </svg>