<?xml version="1.0" standalone="no"?>
<!DOCTYPE svg PUBLIC "-//W3C//DTD SVG 20010904//EN"
 "http://www.w3.org/TR/2001/REC-SVG-20010904/DTD/svg10.dtd">
<svg version="1.0" xmlns="http://www.w3.org/2000/svg"
 width="670.000000pt" height="670.000000pt" viewBox="0 0 670.000000 670.000000"
 preserveAspectRatio="xMidYMid meet">
<metadata>
Created by potrace 1.11, written by Peter Selinger 2001-2013
</metadata>
<g transform="translate(0.000000,670.000000) scale(0.100000,-0.100000)"
fill="#000000" stroke="none">
<path d="M3260 6692 c-14 -2 -57 -19 -97 -37 -235 -109 -328 -411 -193 -630
11 -18 20 -35 20 -38 0 -3 -33 -10 -72 -17 -456 -71 -848 -221 -1223 -469 -55
-36 -102 -68 -105 -71 -3 -3 -23 -18 -45 -35 -150 -110 -357 -307 -495 -471
-302 -358 -522 -801 -626 -1259 -22 -95 -52 -280 -61 -380 -15 -159 -7 -599
12 -675 2 -8 7 -35 10 -60 29 -214 117 -530 200 -715 88 -199 175 -357 274
-504 419 -620 1056 -1067 1765 -1241 66 -16 135 -32 151 -35 82 -15 228 -36
295 -43 101 -9 454 -9 560 1 752 72 1437 418 1955 988 169 185 375 494 472
707 65 143 71 157 106 252 66 178 128 417 152 583 3 27 8 57 10 68 27 139 27
654 0 784 -3 11 -7 38 -10 60 -13 94 -39 217 -71 334 -240 877 -871 1604
-1705 1965 -239 103 -511 182 -729 211 -66 8 -100 16 -100 22 0 3 9 18 21 34
40 56 62 138 61 229 0 47 -2 92 -4 100 -3 8 -9 28 -13 45 -35 128 -183 262
-322 293 -42 10 -147 12 -193 4z m207 -218 c180 -86 178 -352 -3 -444 -64 -32
-160 -34 -219 -3 -183 95 -192 336 -18 444 69 43 155 44 240 3z m158 -678 c22
-3 60 -8 85 -11 125 -16 328 -60 455 -99 590 -182 1087 -537 1461 -1046 221
-300 389 -681 468 -1060 13 -63 27 -137 31 -165 4 -27 8 -61 10 -75 25 -183
24 -521 -1 -690 -32 -216 -69 -377 -125 -543 -186 -550 -534 -1023 -1011
-1375 -53 -40 -99 -72 -101 -72 -3 0 -31 -18 -63 -39 -70 -46 -100 -63 -219
-123 -413 -210 -840 -309 -1303 -302 -75 1 -162 5 -192 8 -30 3 -80 8 -110 11
-209 21 -532 107 -752 201 -217 92 -478 249 -668 400 -120 96 -361 341 -451
459 -242 318 -403 642 -503 1015 -14 52 -27 106 -30 120 -3 22 -18 97 -21 110
-1 3 -5 32 -9 65 -5 33 -10 69 -12 80 -16 88 -23 386 -13 525 13 165 18 206
39 315 5 28 11 61 14 75 2 14 14 62 25 108 202 786 725 1441 1447 1812 249
127 490 209 781 265 27 5 263 33 313 38 53 4 409 -1 455 -7z"/>
<path d="M3178 5625 c-2 -1 -39 -6 -83 -10 -195 -17 -359 -51 -565 -119 -717
-235 -1312 -785 -1605 -1486 -43 -101 -106 -290 -120 -355 -2 -11 -13 -60 -24
-110 -11 -49 -22 -109 -26 -132 -3 -23 -8 -57 -11 -75 -19 -131 -24 -412 -11
-564 45 -499 228 -970 535 -1373 170 -223 401 -437 644 -597 265 -175 646
-332 923 -380 14 -2 35 -6 48 -8 35 -6 89 -16 122 -21 149 -24 547 -25 685 -1
34 6 138 24 177 31 18 3 83 18 145 34 642 167 1197 573 1562 1146 79 123 205
385 254 526 155 447 188 916 97 1394 -3 17 -13 57 -22 90 -8 33 -16 67 -18 75
-2 8 -18 60 -35 115 -136 423 -385 815 -709 1115 -133 122 -206 180 -351 275
-153 100 -261 159 -405 220 -246 105 -424 152 -755 200 -46 7 -446 16 -452 10z
m457 -128 c11 -2 45 -7 75 -11 845 -113 1607 -702 1951 -1506 60 -141 133
-378 153 -495 2 -16 7 -43 10 -60 23 -124 31 -228 31 -420 0 -229 -12 -358
-51 -530 -9 -38 -18 -81 -21 -95 -14 -74 -112 -341 -169 -458 -133 -274 -278
-477 -493 -693 -392 -391 -828 -612 -1404 -713 -160 -28 -572 -28 -727 -1 -8
1 -35 6 -60 10 -87 13 -294 67 -392 101 -679 237 -1233 757 -1507 1414 -75
182 -137 400 -157 555 -3 22 -7 46 -10 54 -26 78 -26 552 0 701 3 14 7 41 10
60 36 236 108 457 230 705 293 595 817 1052 1447 1265 112 37 234 70 314 84
17 3 41 8 55 11 14 3 48 8 75 11 28 4 73 10 100 14 50 7 502 5 540 -3z"/>
<path d="M3306 5198 c-13 -18 -16 -56 -16 -200 0 -165 2 -180 20 -198 26 -26
50 -25 78 0 21 20 22 28 22 200 0 167 -1 181 -20 200 -27 27 -65 26 -84 -2z"/>
<path d="M1793 4578 c-23 -11 -28 -24 -25 -62 3 -29 242 -264 275 -270 33 -6
67 22 67 56 0 26 -257 288 -280 287 -8 0 -25 -5 -37 -11z"/>
<path d="M4855 4580 c-30 -12 -265 -254 -265 -273 0 -47 44 -76 83 -55 28 14
257 242 258 257 1 6 2 17 3 24 3 15 -33 57 -48 56 -6 0 -20 -4 -31 -9z"/>
<path d="M2325 4020 c-10 -11 -16 -29 -13 -42 7 -37 738 -1230 772 -1260 35
-32 79 -59 529 -333 180 -110 357 -219 395 -242 37 -23 81 -49 97 -58 17 -8
50 -28 75 -44 118 -77 153 -94 179 -85 14 5 30 21 35 36 8 24 -1 44 -80 175
-49 81 -92 150 -96 151 -5 2 -8 7 -8 12 0 5 -104 179 -231 387 -128 208 -240
392 -250 410 -71 125 -104 158 -234 238 -55 33 -111 68 -125 77 -55 35 -946
576 -967 587 -32 16 -58 14 -78 -9z m546 -412 c173 -105 329 -200 348 -211
l33 -20 -58 -27 c-86 -40 -148 -99 -187 -180 l-33 -69 -75 122 c-41 67 -78
130 -84 139 -5 10 -48 80 -94 155 -112 182 -171 283 -167 283 2 0 144 -86 317
-192z m579 -357 c181 -80 229 -301 97 -439 -55 -58 -102 -76 -192 -77 -91 0
-136 17 -193 73 -55 56 -82 124 -78 201 5 122 77 214 196 252 39 12 132 7 170
-10z m498 -710 c236 -385 222 -360 191 -340 -13 9 -163 100 -334 204 -170 103
-320 195 -333 203 -24 15 -23 15 23 33 100 38 198 141 221 234 l7 29 16 -23
c9 -13 103 -166 209 -340z"/>
<path d="M5150 3040 c-24 -24 -25 -49 -6 -76 13 -18 28 -19 206 -19 178 0 193
1 206 19 19 27 18 52 -6 76 -19 19 -33 20 -200 20 -167 0 -181 -1 -200 -20z"/>
<path d="M950 3011 c-30 -26 -34 -57 -11 -80 20 -20 32 -21 219 -21 139 1 202
4 213 13 25 19 29 55 9 79 -18 22 -24 23 -215 24 -166 0 -200 -2 -215 -15z"/>
<path d="M1897 1632 c-106 -105 -129 -134 -129 -157 0 -36 36 -68 66 -59 34
10 276 258 276 283 0 27 -34 61 -62 61 -14 0 -65 -43 -151 -128z"/>
<path d="M4610 1740 c-11 -11 -20 -30 -20 -41 0 -25 243 -274 277 -284 32 -9
77 36 68 68 -4 12 -64 79 -134 150 -134 133 -154 144 -191 107z"/>
<path d="M3310 1200 c-19 -19 -20 -33 -20 -198 0 -192 3 -206 52 -217 19 -5
32 -1 47 14 20 20 21 32 21 201 0 167 -1 181 -20 200 -11 11 -29 20 -40 20
-11 0 -29 -9 -40 -20z"/>
</g>
</svg>
